PathFileType	4	(X/Y/Z)	RBDS011\RBDS011runT45.trc
DataRate	CameraRate	NumFrames	NumMarkers	Units	OrigDataRate	OrigDataStartFrame	OrigNumFrames
150.000000	150.000000	4	33	mm	150.000000	3375	4500
Frame#	Time	L.ASIS			L.Heel.Bottom			L.Heel.Lateral			L.Heel.Top			L.Iliac.Crest			L.MT1			L.MT5			L.PSIS			L.Shank.Bottom.Lateral			L.Shank.Bottom.Medial			L.Shank.Top.Lateral			L.Shank.Top.Medial			L.Thigh.Bottom.Lateral			L.Thigh.Bottom.Medial			L.Thigh.Top.Lateral			L.Thigh.Top.Medial			R.ASIS			R.ASY			R.Heel.Bottom			R.Heel.Lateral			R.Heel.Top			R.Iliac.Crest			R.MT1			R.MT5			R.PSIS			R.Shank.Bottom.Lateral			R.Shank.Bottom.Medial			R.Shank.Top.Lateral			R.Shank.Top.Medial			R.Thigh.Bottom.Lateral			R.Thigh.Bottom.Medial			R.Thigh.Top.Lateral			R.Thigh.Top.Medial			
		X1	Y1	Z1	X2	Y2	Z2	X3	Y3	Z3	X4	Y4	Z4	X5	Y5	Z5	X6	Y6	Z6	X7	Y7	Z7	X8	Y8	Z8	X9	Y9	Z9	X10	Y10	Z10	X11	Y11	Z11	X12	Y12	Z12	X13	Y13	Z13	X14	Y14	Z14	X15	Y15	Z15	X16	Y16	Z16	X17	Y17	Z17	X18	Y18	Z18	X19	Y19	Z19	X20	Y20	Z20	X21	Y21	Z21	X22	Y22	Z22	X23	Y23	Z23	X24	Y24	Z24	X25	Y25	Z25	X26	Y26	Z26	X27	Y27	Z27	X28	Y28	Z28	X29	Y29	Z29	X30	Y30	Z30	X31	Y31	Z31	X32	Y32	Z32	X33	Y33	Z33	

3376	22.5	2430.937128166991	931.8504096353233	913.5846154964826	1983.412403450043	617.4290341988736	979.4513824653294	1983.788740266319	588.3394418206628	940.0820629748995	2024.476427710251	589.7635360285162	979.2275476769486	2400.226193277463	1007.613637467027	874.4270915899117	1916.281952589486	403.2554371309957	1030.670161905616	1911.748737177766	429.3145187673728	916.4491403951341	2262.975894208808	982.0703867967808	966.7953073032809	2089.199541752649	515.4053108879268	916.7690451335479	2100.123259576052	552.7733203329361	956.2273569241337	2167.808774793509	510.3801675172023	900.4265608892442	2179.249332478962	546.6424980931212	938.3643735783691	2399.657662887386	548.7229490227635	856.5432168716532	2346.633442444985	533.9558658785371	903.8082951537777	2362.527138209768	652.2935211211542	849.7759987102463	2312.207089461871	638.7986795328378	893.99534691786	2411.241248186857	960.2582379600054	1157.220049330165	2476.367019778598	83.59218723916896	1054.658339118071	2290.899752701867	33.85744155859767	1056.779166674693	2317.515326525625	51.8278252642623	1097.138673602263	2306.308727543448	82.7490927017256	1054.893465429024	2354.771698214213	1003.995000867961	1188.381366064164	2519.20220712951	35.74021222978234	1007.121262701283	2492.71303692214	35.07008455428596	1126.78948609841	2250.912340167059	991.8482086523904	1067.615402802096	2384.268565100748	152.364180009078	1112.921007591519	2349.36169443681	174.1640480030034	1081.745851975392	2407.57275693152	230.1120818530948	1138.463516659947	2368.842372620653	248.9661489932676	1105.903958569684	2449.494236079514	586.1211977410982	1187.921671575665	2395.067395781025	564.8937951060944	1143.534306584139	2396.094393487411	680.8300159592162	1205.874219356563	2342.667147060225	660.420443497986	1167.813278475021	
3377	22.50666666666667	2428.167823673008	928.2039141327718	913.6650240734842	1996.198390975705	608.2417577706665	976.9953136798033	1998.22673511696	579.074722523163	937.9078316943023	2038.424255094589	582.4309640133905	977.4982442413778	2395.058240727706	1002.990674831509	874.4914948603742	1938.250512717435	391.5521160788858	1028.331551438873	1933.774871564643	417.0816803858524	913.9636565417684	2260.011534827167	979.4285828508612	967.7540866760969	2107.040446549989	509.509706999936	915.1927516769362	2117.062400333332	547.1555475048017	954.5647335478308	2185.722773902105	506.2052613325902	898.9695193180003	2196.331973301724	542.7281189680527	936.9904096329551	2414.245477359407	550.0574841912581	854.9371107723223	2361.693737998961	532.1186946482375	901.4961987093188	2371.873400634827	651.6244111678795	848.8007238188947	2321.965683639269	635.0356910779172	892.2589609576893	2409.012842915276	956.9033957268131	1157.555625360219	2446.458609528592	83.90492766157443	1053.478591769561	2261.216038251937	34.89678006546804	1056.571211277087	2288.005949686338	53.26544717142241	1096.729540027095	2276.798124558351	83.72228500254242	1054.2528703792	2352.853783473909	998.8019738851013	1188.699534176535	2489.136965249042	36.08767634889658	1006.442057646784	2462.757977975712	36.42837584879476	1126.216250127319	2248.479091268277	989.5898732151793	1067.913492289211	2359.156025511462	153.05634661187	1111.979349003292	2324.914350069328	176.5126946032201	1081.211274180977	2386.583987451328	229.546112353797	1137.402468238245	2348.285954528016	250.2794634884619	1105.299968572547	2440.78509326339	581.5390487094651	1187.011902984275	2386.407840177688	561.7790772124725	1141.768028303171	2388.960963510855	677.0346939156489	1205.270073694845	2335.659681490268	657.9300513012447	1166.439031297998	
3378	22.51333333333334	2425.290845550333	925.4163069945017	913.4580854695356	2008.2199206931	596.9344453636319	974.50752524785	2012.07803935292	567.7760311676786	935.7106915756974	2051.666429770699	573.3135370423089	975.6788377195091	2388.652181574228	999.1645786228523	874.4607804799987	1961.093126060411	377.8773063433362	1026.092052453866	1956.401764900671	402.8674745702289	911.6354403608705	2257.105823467907	977.4256326042459	968.8229387167704	2124.639414277573	502.6585924347075	913.6756261698901	2133.378586435708	540.6286107612359	952.9448566247169	2203.366727971636	501.7353641208023	897.6421117140761	2212.762557177047	538.5899477629703	935.7061726369585	2428.870058945033	553.1407731948824	853.5525714626615	2376.944938950125	531.9962216957371	899.3837811897401	2381.251481820748	652.3776543677066	848.0261643121016	2331.884386446267	632.650669762496	890.6660541374674	2407.001257214022	954.2446961802655	1157.886669056655	2416.124230832937	84.53967609678695	1052.731922764756	2231.288254903143	35.7296679587989	1056.47954266154	2258.19540429498	54.43098592198686	1096.503972134311	2246.849304090743	84.51025237955533	1053.887150184205	2350.648948293084	994.5216412426707	1188.935661658954	2458.716663236049	36.8513520263234	1006.032288722836	2432.509663630222	37.74464693157467	1125.773979271293	2246.252760160002	987.9229607538268	1068.242737464052	2333.08866393257	153.7638590596526	1111.333261958651	2299.606143296581	178.700721596388	1080.842800607701	2364.255855703997	228.9303458853533	1136.516356896416	2326.485714088412	251.3494633015661	1104.808148651993	2430.468027175412	577.0479033632123	1185.885265628575	2376.007679102034	559.0569297623815	1139.883572686294	2380.871208190404	673.5776706747256	1204.408296732345	2327.583947116702	656.1276351046821	1164.843137039412	
3379	22.52	2422.421145486751	923.6319099115976	912.9675998857895	2019.58409279582	583.5009029762858	972.1015409626941	2025.442264239536	554.4969584219423	933.5758887202052	2064.257413236364	562.4197233846902	973.850943662694	2381.335319752001	996.3155373687454	874.3677187783111	1984.864512865517	362.448162663196	1023.976855481904	1979.704183655685	386.9172900665098	909.484214677065	2254.366408302678	976.1098644857863	969.9676694327064	2141.945179459859	494.900353989944	912.2651186651806	2149.029195625149	533.2144973025073	951.4124696240867	2220.634207580067	496.9966579113811	896.4738177334015	2228.446893042525	534.2244103590547	934.5362228063196	2443.305914598219	557.9247333119433	852.4028406682022	2392.166404067661	533.5944502612997	897.5140158169061	2390.522691666486	654.5349068153109	847.4425562111537	2341.824886738729	631.6828413707598	889.2372610030476	2405.312218483512	952.3021600770611	1158.203304684555	2385.531971334299	85.31081853760674	1052.338899246261	2201.102092517833	36.50761190500403	1056.450143590204	2228.094962490386	55.44057836015158	1096.402898387958	2216.547774007	85.25918865239765	1053.722133881368	2348.278464878881	991.323521825371	1189.078000989497	2428.034446426064	37.71391169933702	1005.831089576478	2401.991775291413	38.82961016090665	1125.437282443013	2244.323723120453	986.8441397854505	1068.623723058812	2306.157928255012	154.4997870488228	1110.916444792492	2273.513861934059	180.7425585264027	1080.582736002133	2340.659184998662	228.3212737693889	1135.780994896042	2303.499159361399	252.2354537258849	1104.397405071609	2418.662378244222	572.8124279512244	1184.64469282718	2363.951096656654	556.8528934201938	1138.07694042744	2371.951326955826	670.5939565040278	1203.374361142437	2318.549641566156	655.1228638124198	1163.176115646593	
